HIERARCHY
ROOT Hips
{
	OFFSET 52.457901 -12.914115 95.611397
	CHANNELS 6 Xposition Yposition Zposition Xrotation Yrotation Zrotation
	JOINT spine
	{
		OFFSET 0.000000 -0.458069 7.965683
		CHANNELS 3 Xrotation Yrotation Zrotation
		JOINT spine1
		{
			OFFSET 0.000000 -0.000001 10.243103
			CHANNELS 3 Xrotation Yrotation Zrotation
			JOINT spine2
			{
				OFFSET 0.000000 -0.000002 9.814751
				CHANNELS 3 Xrotation Yrotation Zrotation
				JOINT Neck
				{
					OFFSET 0.000000 -1.201384 25.198593
					CHANNELS 3 Xrotation Yrotation Zrotation
					JOINT Head
					{
						OFFSET 0.000000 -0.000002 7.613144
						CHANNELS 3 Xrotation Yrotation Zrotation
						End Site
						{
							OFFSET 0.000000 6.077328 18.428101
						}
					}
				}
				JOINT RightShoulder
				{
					OFFSET -4.132698 0.575449 10.599197
					CHANNELS 3 Xrotation Yrotation Zrotation
					JOINT RightArm
					{
						OFFSET 0.000000 -0.000002 13.901794
						CHANNELS 3 Xrotation Yrotation Zrotation
						JOINT RightArmRoll
						{
							OFFSET 0.000000 -0.000002 7.017883
							CHANNELS 3 Xrotation Yrotation Zrotation
							JOINT RightForeArm
							{
								OFFSET 0.000000 -0.000003 20.440598
								CHANNELS 3 Xrotation Yrotation Zrotation
								JOINT RightForeArmRoll
								{
									OFFSET 0.000000 -0.000001 7.875153
									CHANNELS 3 Xrotation Yrotation Zrotation
									JOINT RightHand
									{
										OFFSET 0.000000 -0.000003 15.803696
										CHANNELS 3 Xrotation Yrotation Zrotation
										End Site
										{
											OFFSET 0.000000 0.000000 0.100006
										}
									}
								}
							}
						}
					}
				}
				JOINT LeftShoulder
				{
					OFFSET 4.132698 0.575449 10.599197
					CHANNELS 3 Xrotation Yrotation Zrotation
					JOINT LeftArm
					{
						OFFSET 0.000000 -0.000002 13.901794
						CHANNELS 3 Xrotation Yrotation Zrotation
						JOINT LeftArmRoll
						{
							OFFSET 0.000000 -0.000002 7.017883
							CHANNELS 3 Xrotation Yrotation Zrotation
							JOINT LeftForeArm
							{
								OFFSET 0.000000 -0.000003 20.440598
								CHANNELS 3 Xrotation Yrotation Zrotation
								JOINT LeftForeArmRoll
								{
									OFFSET 0.000000 -0.000001 7.875153
									CHANNELS 3 Xrotation Yrotation Zrotation
									JOINT LeftHand
									{
										OFFSET 0.000000 -0.000003 15.803696
										CHANNELS 3 Xrotation Yrotation Zrotation
										End Site
										{
											OFFSET 0.000000 0.000000 0.100006
										}
									}
								}
							}
						}
					}
				}
			}
		}
	}
	JOINT RightUpLeg
	{
		OFFSET -7.060471 1.086090 -1.294701
		CHANNELS 3 Xrotation Yrotation Zrotation
		JOINT RightUpLegRoll
		{
			OFFSET 0.000000 -0.000003 18.530800
			CHANNELS 3 Xrotation Yrotation Zrotation
			JOINT RightLeg
			{
				OFFSET 0.000000 0.000004 -22.947601
				CHANNELS 3 Xrotation Yrotation Zrotation
				JOINT RightLegRoll
				{
					OFFSET 0.000000 -0.000004 23.022598
					CHANNELS 3 Xrotation Yrotation Zrotation
					JOINT RightFoot
					{
						OFFSET 0.000000 -0.000004 19.162498
						CHANNELS 3 Xrotation Yrotation Zrotation
						JOINT RightToeBase
						{
							OFFSET 0.000000 -0.000002 16.018799
							CHANNELS 3 Xrotation Yrotation Zrotation
							End Site
							{
								OFFSET 0.006790 0.894204 7.757812
							}
						}
					}
				}
			}
		}
	}
	JOINT LeftUpLeg
	{
		OFFSET 7.060471 1.086090 -1.294701
		CHANNELS 3 Xrotation Yrotation Zrotation
		JOINT LeftUpLegRoll
		{
			OFFSET 0.000000 -0.000003 18.530899
			CHANNELS 3 Xrotation Yrotation Zrotation
			JOINT LeftLeg
			{
				OFFSET 0.000000 -0.000004 22.947495
				CHANNELS 3 Xrotation Yrotation Zrotation
				JOINT LeftLegRoll
				{
					OFFSET 0.000000 -0.000004 23.235504
					CHANNELS 3 Xrotation Yrotation Zrotation
					JOINT LeftFoot
					{
						OFFSET 0.000000 -0.000003 18.949600
						CHANNELS 3 Xrotation Yrotation Zrotation
						JOINT LeftToeBase
						{
							OFFSET 0.000000 -0.000003 16.018799
							CHANNELS 3 Xrotation Yrotation Zrotation
							End Site
							{
								OFFSET -0.030430 0.894206 7.757812
							}
						}
					}
				}
			}
		}
	}
}
MOTION
Frames: 12
Frame Time: 0.041667
52.008305 -9.654864 95.645897 0.259693 0.501426 2.341748 -2.387953 -0.251957 -0.065736 -0.773418 -0.485606 -0.152425 0.871679 -0.487406 -0.146598 19.791095 1.274230 -0.514575 -0.660696 -2.762107 -0.236206 2.821337 -70.975795 1.660402 -61.114033 -107.853413 -28.966580 0.000000 -0.000007 0.000001 2.097339 3.618800 0.428587 -0.000002 0.000005 -3.006684 -5.000184 -7.999909 -0.000001 -1.538243 72.363730 3.276360 -63.177003 108.608730 34.802314 0.000000 0.000014 0.000001 1.160278 -2.378134 -0.553348 0.000001 -0.000016 3.003112 -5.000173 8.000001 -0.000015 -0.552855 -175.287202 -2.217406 -179.999991 0.000005 -1.097005 175.983362 -2.308317 -0.556045 0.000002 0.000004 0.039662 69.261212 6.904202 2.080126 25.456851 -7.355621 -0.000013 -2.883215 173.497173 0.822430 -0.000020 -0.000005 -1.071630 -6.894861 1.635007 0.379389 0.000002 -0.000003 -0.044631 69.520623 -6.587232 -2.887512 25.456952 7.355613 -0.000000 
52.011402 -9.665232 95.648102 0.257488 0.498707 2.349389 -2.389673 -0.251957 -0.065822 -0.776865 -0.484933 -0.152500 0.868233 -0.486766 -0.146682 19.816336 1.290144 -0.512524 -0.682089 -2.771474 -0.232753 2.783355 -70.952948 1.621493 -61.118035 -107.797112 -28.920435 -0.000004 -0.000007 -0.000000 2.138011 3.644279 0.430344 -0.000002 0.000006 -3.006682 -5.000184 -7.999909 -0.000001 -1.580889 72.354605 3.322148 -63.322486 108.587563 34.878713 0.000002 0.000014 0.000000 1.181776 -2.437743 -0.558272 0.000002 -0.000015 3.003113 -5.000175 8.000000 -0.000014 -0.532821 -175.285207 -2.215338 -179.999991 0.000005 -1.097006 176.005984 -2.308381 -0.555133 0.000002 0.000004 0.039662 69.255502 6.906508 2.074505 25.456854 -7.355621 -0.000013 -2.874336 173.492132 0.804746 -0.000020 -0.000005 -1.072200 -6.886972 1.653559 0.378737 0.000002 -0.000003 -0.045182 69.521060 -6.593380 -2.871801 25.456957 7.355613 -0.000001 
52.008404 -9.665894 95.646004 0.255290 0.495791 2.357011 -2.391385 -0.251957 -0.065951 -0.780294 -0.484221 -0.152679 0.864804 -0.486104 -0.146869 19.841577 1.307070 -0.510496 -0.703935 -2.781871 -0.229201 2.745123 -70.929889 1.582337 -61.116205 -107.742314 -28.870079 0.000001 -0.000006 0.000000 2.178673 3.668884 0.431964 -0.000001 0.000005 -3.006681 -5.000181 -7.999909 0.000001 -1.625351 72.345739 3.369979 -63.464383 108.567858 34.952025 0.000004 0.000013 -0.000000 1.203000 -2.497680 -0.563178 0.000001 -0.000016 3.003111 -5.000172 8.000001 -0.000013 -0.512517 -175.284197 -2.213208 -179.999991 0.000005 -1.097006 176.029138 -2.307451 -0.554131 0.000002 0.000004 0.039662 69.249498 6.908872 2.068914 25.456856 -7.355621 -0.000013 -2.867130 173.487092 0.788413 -0.000020 -0.000005 -1.072700 -6.881891 1.670960 0.378142 0.000002 -0.000002 -0.045780 69.523123 -6.599376 -2.856564 25.456959 7.355614 -0.000001 
52.005802 -9.666945 95.648590 0.253093 0.492739 2.364613 -2.393095 -0.251957 -0.066109 -0.783711 -0.483481 -0.152932 0.861387 -0.485426 -0.147131 19.866833 1.324723 -0.508497 -0.726103 -2.792967 -0.225583 2.706747 -70.906735 1.543040 -61.110645 -107.688628 -28.816927 -0.000002 -0.000006 0.000002 2.219330 3.692887 0.433483 -0.000002 0.000005 -3.006678 -5.000184 -7.999910 -0.000004 -1.671082 72.337161 3.419210 -63.603808 108.549075 35.023287 0.000001 0.000014 0.000000 1.224037 -2.557837 -0.568061 0.000002 -0.000017 3.003109 -5.000177 8.000000 -0.000017 -0.492020 -175.282175 -2.211040 -179.999991 0.000005 -1.097005 176.052675 -2.306522 -0.553115 0.000002 0.000004 0.039662 69.243495 6.911268 2.063129 25.456854 -7.355621 -0.000012 -2.861084 173.483062 0.772977 -0.000020 -0.000004 -1.073140 -6.878758 1.687542 0.377584 0.000002 -0.000002 -0.046412 69.526422 -6.605259 -2.841534 25.456955 7.355613 -0.000001 
52.001404 -9.678904 95.656097 0.250900 0.489607 2.372206 -2.394803 -0.251958 -0.066285 -0.787120 -0.482725 -0.153227 0.857979 -0.484739 -0.147436 19.892190 1.342774 -0.506517 -0.748453 -2.804471 -0.221931 2.668307 -70.883375 1.503680 -61.102961 -107.635551 -28.762265 -0.000002 -0.000007 -0.000001 2.259973 3.716546 0.434926 -0.000001 0.000005 -3.006680 -5.000185 -7.999910 0.000000 -1.717509 72.328657 3.469226 -63.742098 108.530975 35.093573 0.000002 0.000014 -0.000002 1.244955 -2.618125 -0.572905 0.000001 -0.000015 3.003111 -5.000177 7.999999 -0.000015 -0.471412 -175.280167 -2.208852 -179.999991 0.000005 -1.097006 176.076417 -2.305592 -0.551095 0.000002 0.000004 0.039662 69.237389 6.913661 2.057450 25.456854 -7.355622 -0.000013 -2.855710 173.479046 0.758081 -0.000020 -0.000004 -1.073540 -6.876756 1.703672 0.377051 0.000002 -0.000002 -0.047063 69.530329 -6.611072 -2.826754 25.456955 7.355613 -0.000001 
51.999603 -9.679455 95.652596 0.248711 0.486456 2.379799 -2.396502 -0.251957 -0.066464 -0.790529 -0.481963 -0.153533 0.854571 -0.484049 -0.147752 19.917458 1.360941 -0.504556 -0.770848 -2.816086 -0.218278 2.629945 -70.860105 1.464404 -61.094328 -107.582754 -28.706786 -0.000003 -0.000007 -0.000001 2.300612 3.740123 0.436325 0.000001 0.000006 -3.006679 -5.000185 -7.999909 -0.000002 -1.764088 72.320235 3.519401 -63.880369 108.513032 35.163846 0.000003 0.000013 -0.000002 1.265861 -2.678448 -0.577711 -0.000001 -0.000016 3.003111 -5.000177 7.999998 -0.000016 -0.450781 -175.278131 -2.206660 -179.999991 0.000005 -1.097006 176.100172 -2.304663 -0.550071 0.000002 0.000004 0.039661 69.231296 6.916089 2.051676 25.456858 -7.355620 -0.000013 -2.850510 173.475016 0.743321 -0.000019 -0.000004 -1.073940 -6.875022 1.719673 0.376521 0.000002 -0.000002 -0.047718 69.534536 -6.616828 -2.811945 25.456957 7.355614 -0.000000 
52.004204 -9.694637 95.653496 0.246514 0.483343 2.387391 -2.398215 -0.251957 -0.066635 -0.793940 -0.481211 -0.153818 0.851159 -0.483364 -0.148045 19.942820 1.378895 -0.502607 -0.793154 -2.827500 -0.214655 2.591733 -70.836834 1.425283 -61.086883 -107.529622 -28.652148 -0.000002 -0.000007 -0.000002 2.341264 3.763873 0.437714 -0.000001 0.000005 -3.006680 -5.000186 -7.999910 -0.000002 -1.810239 72.311623 3.569114 -64.019431 108.494898 35.234859 0.000003 0.000013 0.000001 1.286830 -2.738711 -0.582463 -0.000001 -0.000017 3.003108 -5.000174 8.000000 -0.000015 -0.430203 -175.276137 -2.204470 -179.999991 0.000005 -1.097005 176.123859 -2.303720 -0.549050 0.000002 0.000004 0.039662 69.225306 6.918486 2.045893 25.456851 -7.355621 -0.000013 -2.844968 173.470986 0.728288 -0.000019 -0.000004 -1.074360 -6.872731 1.735914 0.375979 0.000002 -0.000002 -0.048365 69.538252 -6.622659 -2.797179 25.456953 7.355612 -0.000000 
52.003105 -9.697725 95.654099 0.244320 0.480328 2.395002 -2.399922 -0.251958 -0.066785 -0.797360 -0.480477 -0.154049 0.847739 -0.482690 -0.148287 19.968084 1.396346 -0.500666 -0.815234 -2.838414 -0.211092 2.553766 -70.813537 1.386410 -61.081624 -107.475875 -28.598922 -0.000002 -0.000007 -0.000001 2.381926 3.788075 0.439115 -0.000002 0.000006 -3.006680 -5.000184 -7.999909 -0.000001 -1.855418 72.302900 3.617754 -64.160891 108.476081 35.308045 0.000002 0.000013 0.000001 1.307928 -2.798823 -0.587165 0.000001 -0.000017 3.003111 -5.000176 7.999997 -0.000017 -0.409758 -175.274115 -2.202311 -179.999991 0.000005 -1.097006 176.147273 -2.303783 -0.548109 0.000002 0.000004 0.039661 69.219295 6.920848 2.040302 25.456854 -7.355622 -0.000012 -2.838586 173.466970 0.712579 -0.000020 -0.000004 -1.074810 -6.869050 1.752736 0.375403 0.000002 -0.000002 -0.048987 69.541250 -6.628557 -2.782066 25.456955 7.355614 -0.000001 
52.002205 -9.700823 95.654892 0.242121 0.477468 2.402623 -2.401634 -0.251958 -0.066901 -0.800794 -0.479777 -0.154197 0.844305 -0.482035 -0.148442 19.993338 1.412992 -0.498731 -0.836949 -2.848517 -0.207621 2.516172 -70.790533 1.347926 -61.080613 -107.421042 -28.548651 -0.000002 -0.000007 -0.000003 2.422615 3.812971 0.440559 -0.000003 0.000005 -3.006679 -5.000181 -7.999909 -0.000003 -1.899061 72.293885 3.664677 -64.305849 108.456417 35.384372 0.000004 0.000013 0.000001 1.329254 -2.858684 -0.591794 0.000001 -0.000015 3.003110 -5.000173 7.999999 -0.000013 -0.389535 -175.272107 -2.200199 -179.999991 0.000004 -1.097005 176.170277 -2.302850 -0.547117 0.000002 0.000004 0.039662 69.213394 6.923217 2.034607 25.456853 -7.355621 -0.000013 -2.830877 173.461916 0.695835 -0.000020 -0.000005 -1.075330 -6.863123 1.770471 0.374773 0.000002 -0.000002 -0.049571 69.542807 -6.634586 -2.766665 25.456955 7.355613 -0.000001 
52.002403 -9.707813 95.656296 0.239921 0.474822 2.410282 -2.403364 -0.251958 -0.066971 -0.804248 -0.479122 -0.154228 0.840852 -0.481403 -0.148482 20.018489 1.428505 -0.496786 -0.858163 -2.857501 -0.204270 2.479044 -70.767822 1.309915 -61.085380 -107.364754 -28.502373 -0.000002 -0.000007 -0.000000 2.463331 3.838821 0.442070 -0.000001 0.000005 -3.006677 -5.000182 -7.999909 -0.000001 -1.940619 72.284582 3.709285 -64.455402 108.435298 35.464750 0.000000 0.000013 -0.000001 1.350900 -2.918199 -0.596353 0.000002 -0.000013 3.003111 -5.000176 7.999998 -0.000015 -0.369609 -175.271096 -2.198143 -179.999991 0.000005 -1.098003 176.192707 -2.301915 -0.546150 0.000002 0.000004 0.039662 69.207684 6.925526 2.029090 25.456856 -7.355619 -0.000012 -2.821322 173.456875 0.677600 -0.000020 -0.000004 -1.075940 -6.854129 1.789487 0.374067 0.000002 -0.000002 -0.050103 69.542548 -6.640835 -2.750813 25.456953 7.355613 -0.000000 
51.999504 -9.705896 95.656494 0.237710 0.472448 2.417971 -2.405102 -0.251958 -0.066982 -0.807727 -0.478523 -0.154111 0.837372 -0.480805 -0.148373 20.043626 1.442595 -0.494832 -0.878739 -2.865074 -0.201069 2.442461 -70.745289 1.272451 -61.097654 -107.306493 -28.461549 -0.000002 -0.000007 -0.000000 2.504072 3.865907 0.443673 -0.000000 0.000005 -3.006680 -5.000186 -7.999909 -0.000000 -1.979512 72.274685 3.750924 -64.610803 108.412430 35.550219 0.000001 0.000014 -0.000000 1.372933 -2.977277 -0.600827 0.000001 -0.000015 3.003112 -5.000175 8.000001 -0.000014 -0.350063 -175.270085 -2.196167 -179.999991 0.000005 -1.098002 176.214414 -2.300977 -0.545212 0.000002 0.000004 0.039662 69.202158 6.927738 2.023742 25.456858 -7.355621 -0.000012 -2.809432 173.449813 0.657567 -0.000020 -0.000004 -1.076660 -6.841221 1.810129 0.373263 0.000002 -0.000003 -0.050569 69.539939 -6.647347 -2.734249 25.456957 7.355613 -0.000001 
52.000603 -9.713613 95.657295 0.235495 0.470406 2.425697 -2.406852 -0.251958 -0.066920 -0.811235 -0.477992 -0.153815 0.833864 -0.480244 -0.148085 20.068650 1.454953 -0.492859 -0.898547 -2.870918 -0.198047 2.406544 -70.723248 1.235671 -61.119033 -107.245889 -28.427100 -0.000002 -0.000006 0.000001 2.544860 3.894469 0.445398 -0.000001 0.000005 -3.006680 -5.000183 -7.999909 -0.000003 -2.015191 72.264214 3.788981 -64.773464 108.387405 35.642270 0.000000 0.000014 0.000001 1.395436 -3.035811 -0.605211 0.000001 -0.000015 3.003109 -5.000176 7.999999 -0.000014 -0.330981 -175.269088 -2.194279 -179.999991 0.000005 -1.098003 176.235218 -2.301033 -0.544377 0.000003 0.000004 0.039662 69.196831 6.929923 2.018377 25.456861 -7.355621 -0.000012 -2.794685 173.442750 0.635227 -0.000020 -0.000004 -1.077510 -6.823567 1.832724 0.372331 0.000002 -0.000003 -0.050953 69.534461 -6.654131 -2.717005 25.456955 7.355614 -0.000001 
